<svg id="Layer_1" data-name="Layer 1" xmlns="http://www.w3.org/2000/svg" viewBox="0 0 1004.02 704.5"><defs><style>.cls-1{fill:#243976;}.cls-2{fill:#468ecc;}.cls-3{fill:#fff;}</style></defs><circle class="cls-1" cx="502.01" cy="233.56" r="233.56"/><path class="cls-2" d="M655,292q-11.47-18.18-36.36-30.09a193,193,0,0,0-30.33-11.13,18.33,18.33,0,0,0-20.89,8.46l-35,60.63q21.43,4.25,31.68,8.49,11.48,4.77,11.48,13,0,19.06-39.4,19.05-29,0-50.43-8.87a94.9,94.9,0,0,1-25.43-15.79l-36.53,21.08v40.05a168.64,168.64,0,0,0,21.94,12.75h0l-10.28,18.1h0l8.72,15.1h17.44l12.92-22.67Q501.92,427,541.77,427q35.49,0,63.64-10.39T650,385.9q16.46-20.36,16.45-48.92Q666.44,310.15,655,292Z" transform="translate(-38.24 -46.4)"/><path class="cls-2" d="M629.66,151l.14.06,10.71-18.84h0l-8.72-15.1H614.35l-12.92,22.67.39.15q-25.83-7.28-59.19-7.32-40.26,0-69.26,12.12t-44.16,33.77q-15.15,21.65-15.15,49.78,0,29.87,15.59,47.83a97,97,0,0,0,39.17,27.06q8.55,3.29,18.56,6.24a18.29,18.29,0,0,0,21-8.43l34.77-60.21q-18.14-3.8-26.9-7.3-10.83-4.32-10.83-12.12,0-9.94,10.39-16t29-6.06q25.53,0,45.24,8.88a99.09,99.09,0,0,1,25.86,17.39l36-20.79V165.31A165.24,165.24,0,0,0,629.66,151Z" transform="translate(-38.24 -46.4)"/><path class="cls-3" d="M655,292q-11.47-18.18-36.36-30.09a193,193,0,0,0-30.33-11.13,18.33,18.33,0,0,0-20.89,8.46l-35,60.63q21.43,4.25,31.68,8.49,11.48,4.77,11.48,13,0,19.06-39.4,19.05-29,0-50.43-8.87a94.9,94.9,0,0,1-25.43-15.79l-36.53,21.08v40.05a168.64,168.64,0,0,0,21.94,12.75h0l-10.28,18.1h0l8.72,15.1h17.44l12.92-22.67Q501.92,427,541.77,427q35.49,0,63.64-10.39T650,385.9q16.46-20.36,16.45-48.92Q666.44,310.15,655,292Z" transform="translate(-38.24 -46.4)"/><path class="cls-3" d="M629.66,151l.14.06,10.71-18.84h0l-8.72-15.1H614.35l-12.92,22.67.39.15q-25.83-7.28-59.19-7.32-40.26,0-69.26,12.12t-44.16,33.77q-15.15,21.65-15.15,49.78,0,29.87,15.59,47.83a97,97,0,0,0,39.17,27.06q8.55,3.29,18.56,6.24a18.29,18.29,0,0,0,21-8.43l34.77-60.21q-18.14-3.8-26.9-7.3-10.83-4.32-10.83-12.12,0-9.94,10.39-16t29-6.06q25.53,0,45.24,8.88a99.09,99.09,0,0,1,25.86,17.39l36-20.79V165.31A165.24,165.24,0,0,0,629.66,151Z" transform="translate(-38.24 -46.4)"/><path class="cls-1" d="M625.34,733.59q-5.75,3.84-15.57,6.23a80.56,80.56,0,0,1-19.16,2.4q-24,0-35.94-9.59t-12-31.14V653.34h-19.4V620h19.4V593.93l48.4-13.42V620h32.82v33.3H591.09v40.49q0,8.38,3.71,12t11.38,3.6a31.09,31.09,0,0,0,16.05-4.08Z" transform="translate(-38.24 -46.4)"/><path class="cls-1" d="M772.44,712.27l-3.83,25.64a35,35,0,0,1-17,4.31q-13.67,0-22.64-4.91a23.81,23.81,0,0,1-11.86-14.5,35.72,35.72,0,0,1-15.93,14.26q-10.67,5.14-26.71,5.15-18.21,0-27.67-7.55T637.32,713q0-15.09,10.78-24.44T684,674.18l25.4-5.27v-4.55q0-6.95-3.6-10.78t-10.06-3.83q-7.18,0-11.74,3.71t-5.51,12.81l-39.77-8.38q2.64-19.17,17.37-29.71t41.33-10.54q59.88,0,59.89,47.68v38.33q0,9.58,8.38,9.58A19.87,19.87,0,0,0,772.44,712.27Zm-67.68-2q4.68-3.72,4.68-10.43v-11l-13.18,3.36q-12.46,3.12-12.46,12.46c0,3,.92,5.35,2.76,6.94a10.71,10.71,0,0,0,7.3,2.4A17,17,0,0,0,704.76,710.24Z" transform="translate(-38.24 -46.4)"/><path class="cls-1" d="M804.33,737.67a56,56,0,0,1-24.8-14.86l22.76-26.35a41.07,41.07,0,0,0,15.33,11.38,49.94,49.94,0,0,0,20.13,3.95,29.18,29.18,0,0,0,10.06-1.44q3.83-1.43,3.83-4.31,0-2.62-4.31-4.67T832,696.94q-26.36-5-38-14.38a29.59,29.59,0,0,1-11.62-24.19q0-10.3,6.82-19.65t20.61-15.21q13.77-5.87,34.14-5.87,39,0,56.29,19.89l-21.8,23.71q-11.25-13.17-32.58-13.17-7.42,0-11.26,1.79t-3.83,4.67q0,2.4,4.19,4.2t14,3.47q27.06,4.08,39.17,13.3T900.27,701q0,18-15.09,29.59t-44.56,11.62Q819.31,742.22,804.33,737.67Z" transform="translate(-38.24 -46.4)"/><path class="cls-1" d="M1031.84,628.42q10.42,10.79,10.42,30.43v81H993.87v-68q0-9.81-3.11-13.89t-9.11-4.07a14.2,14.2,0,0,0-11.86,5.75q-4.42,5.74-4.43,17.25v63H917V570.69h48.39v72.59q5.26-12.71,14.86-19.17t22.75-6.47Q1021.42,617.64,1031.84,628.42Z" transform="translate(-38.24 -46.4)"/><path class="cls-1" d="M38.24,581.67h84q58.15.26,58.16,42.37,0,14.37-8.61,23.94t-25.38,12v.24q18.91,2.38,28.49,12.2t9.57,25.14q0,20.82-14.36,31.47t-42.85,10.65h-89ZM112,644.39q18.42,0,18.43-14.12T112,616.14H85.16v28.25ZM116,706.62q18.43,0,18.44-14.36,0-14.12-18.44-14.12H85.16v28.48Z" transform="translate(-38.24 -46.4)"/><path class="cls-1" d="M201.5,604.41q-6.23-5-6.22-16.27,0-11.49,6.22-16.52t20.83-5q14.6,0,20.82,5t6.22,16.52q0,11.25-6.22,16.27t-20.82,5Q207.72,609.44,201.5,604.41Zm45,135.24H198.15V620H246.5Z" transform="translate(-38.24 -46.4)"/><path class="cls-1" d="M361,733.43q-5.75,3.84-15.55,6.22a80.54,80.54,0,0,1-19.15,2.4q-23.94,0-35.91-9.58t-12-31.11V653.24H259.07V620h19.38V593.88l48.36-13.4V620H359.6v33.27H326.81V693.7q0,8.37,3.71,12t11.37,3.59a31.13,31.13,0,0,0,16-4.06Z" transform="translate(-38.24 -46.4)"/><path class="cls-1" d="M508.73,667.43q-6.35-10.06-20.12-16.65a107.43,107.43,0,0,0-16.79-6.16,10.15,10.15,0,0,0-11.56,4.68l-19.37,33.56q11.85,2.35,17.53,4.7,6.34,2.64,6.35,7.18,0,10.56-21.8,10.55-16.07,0-27.92-4.91A52.54,52.54,0,0,1,401,691.63l-20.22,11.68v22.16a94.17,94.17,0,0,0,12.15,7.06h0l-5.69,10h0L392,750.9h9.65l7.16-12.55q15.18,3.84,37.23,3.84,19.65,0,35.22-5.76t24.68-17q9.1-11.25,9.1-27.07Q515.08,677.5,508.73,667.43Z" transform="translate(-38.24 -46.4)"/><path class="cls-1" d="M494.72,589.44l.08,0L500.73,579h0l-4.83-8.35h-9.65l-7.15,12.54.22.09a120.77,120.77,0,0,0-32.76-4.06q-22.28,0-38.33,6.71t-24.44,18.69a46.86,46.86,0,0,0-8.39,27.55q0,16.53,8.63,26.48a53.62,53.62,0,0,0,21.68,15q4.73,1.83,10.27,3.45a10.12,10.12,0,0,0,11.61-4.66l19.24-33.33a95.58,95.58,0,0,1-14.88-4q-6-2.4-6-6.71,0-5.5,5.75-8.87t16.05-3.35a60.51,60.51,0,0,1,25,4.91,55.14,55.14,0,0,1,14.31,9.63L507,619.19V597.34A91,91,0,0,0,494.72,589.44Z" transform="translate(-38.24 -46.4)"/></svg>